<svg width="93" height="96" viewBox="0 0 93 96" fill="none" xmlns="http://www.w3.org/2000/svg">
<g clip-path="url(#clip0_803_22)">
<path d="M29.7768 96C38.4856 96 45.5536 88.832 45.5536 80V64H29.7768C21.068 64 14 71.168 14 80C14 88.832 21.068 96 29.7768 96Z" fill="#0ACF83"/>
<path d="M14 48C14 39.168 21.068 32 29.7768 32H45.5536V64H29.7768C21.068 64 14 56.832 14 48Z" fill="#A259FF"/>
<path d="M14 16C14 7.168 21.068 0 29.7768 0H45.5536V32H29.7768C21.068 32 14 24.832 14 16Z" fill="#F24E1E"/>
<path d="M45.5536 0H61.3304C70.0392 0 77.1072 7.168 77.1072 16C77.1072 24.832 70.0392 32 61.3304 32H45.5536V0Z" fill="#FF7262"/>
<path d="M77.1072 48C77.1072 56.832 70.0392 64 61.3304 64C52.6216 64 45.5536 56.832 45.5536 48C45.5536 39.168 52.6216 32 61.3304 32C70.0392 32 77.1072 39.168 77.1072 48Z" fill="#1ABCFE"/>
</g>
<defs>
<clipPath id="clip0_803_22">
<rect width="93" height="96" fill="white"/>
</clipPath>
</defs>
</svg>
