<svg width="101" height="101" viewBox="0 0 101 101" fill="none" xmlns="http://www.w3.org/2000/svg">
<g clip-path="url(#clip0_803_30)">
<path d="M47.1923 0.0252878C46.9734 0.0463294 46.2833 0.117871 45.6604 0.164163C31.3184 1.46033 17.8854 9.19945 9.36775 21.0964C4.6641 27.6266 1.60641 35.1957 0.4545 43.1607C0.0505 45.9382 0 46.7546 0 50.5169C0 54.2791 0.0505 55.0997 0.4545 57.873C3.19833 76.84 16.6987 92.7727 35.0007 98.677C38.279 99.7333 41.734 100.453 45.6604 100.891C47.1923 101.059 53.8078 101.059 55.3396 100.891C62.1192 100.137 67.8678 98.4582 73.5322 95.5671C74.4033 95.1252 74.5717 95.0032 74.4538 94.9064C71.6831 91.2523 68.9406 87.5769 66.2265 83.8805L58.1508 72.9683L48.0339 57.9909C44.6678 52.9813 41.2702 47.9929 37.8413 43.026C37.8035 43.0134 37.7656 49.6668 37.7445 57.7973C37.7151 72.0215 37.7025 72.5938 37.5257 72.9305C37.3533 73.3234 37.0457 73.6414 36.6588 73.8268C36.3432 73.9867 36.0696 74.0162 34.5757 74.0162H32.8671L32.4126 73.73C32.1313 73.5525 31.9031 73.3024 31.7519 73.0062L31.5415 72.5643L31.5625 52.7683L31.592 32.9639L31.8992 32.5767C32.106 32.3347 32.3539 32.131 32.6314 31.975C33.0354 31.7772 33.1911 31.7603 34.9039 31.7603C36.9155 31.7603 37.2522 31.8361 37.774 32.4084C37.9213 32.5683 43.4005 40.8251 49.9571 50.7652L69.8794 80.9473L77.8752 93.0589L78.2834 92.7938C82.1315 90.2355 85.6203 87.1742 88.657 83.6912C95.0206 76.4078 99.1485 67.4434 100.546 57.873C100.95 55.0955 101 54.2791 101 50.5169C101 46.7546 100.95 45.9382 100.546 43.1607C97.8017 24.198 84.3013 8.261 65.9993 2.3567C62.5787 1.26914 59.0565 0.531707 55.4869 0.155746C54.5358 0.0547461 48.0129 -0.0546706 47.1965 0.0294961L47.1923 0.0252878ZM67.8678 30.5778C68.1025 30.696 68.3114 30.8595 68.4826 31.0588C68.6538 31.2582 68.7838 31.4894 68.8652 31.7393C68.9409 31.9918 68.962 37.4837 68.9409 49.8562L68.9115 67.6069L65.7847 62.8094L62.6453 58.0119V45.1092C62.6453 36.764 62.6831 32.076 62.742 31.8487C62.8121 31.5858 62.9347 31.3399 63.1026 31.1258C63.2704 30.9117 63.4799 30.7339 63.7184 30.603C64.1266 30.3926 64.2739 30.3758 65.8225 30.3758C67.2828 30.3758 67.5395 30.3968 67.8678 30.5736V30.5778Z" fill="black"/>
</g>
<defs>
<clipPath id="clip0_803_30">
<rect width="101" height="101" fill="white"/>
</clipPath>
</defs>
</svg>
