<svg width="118" height="107" viewBox="0 0 118 107" fill="none" xmlns="http://www.w3.org/2000/svg">
<g clip-path="url(#clip0_699_18)">
<path d="M59 18C43.2668 18 33.4332 25.8686 29.5 41.6052C35.4 33.7366 42.2832 30.786 50.15 32.7532C54.6381 33.8754 57.8463 37.1327 61.3973 40.7375C67.1821 46.6107 73.8768 53.4078 88.5 53.4078C104.233 53.4078 114.067 45.5392 118 29.8026C112.1 37.6712 105.217 40.6218 97.35 38.6545C92.8618 37.5324 89.6537 34.2751 86.1027 30.6703C80.3179 24.7971 73.6232 18 59 18ZM29.5 53.4078C13.7668 53.4078 3.93318 61.2763 0 77.013C5.9 69.1444 12.7832 66.1938 20.65 68.161C25.1381 69.2832 28.3463 72.5404 31.8973 76.1453C37.6821 82.0185 44.3768 88.8156 59 88.8156C74.7332 88.8156 84.5668 80.947 88.5 65.2104C82.6 73.0789 75.7168 76.0296 67.85 74.0623C63.3619 72.9402 60.1537 69.6829 56.6027 66.0781C50.8179 60.2049 44.1232 53.4078 29.5 53.4078Z" fill="url(#paint0_linear_699_18)"/>
</g>
<defs>
<linearGradient id="paint0_linear_699_18" x1="-3.27804" y1="40.661" x2="98.6454" y2="99.4153" gradientUnits="userSpaceOnUse">
<stop stop-color="#2298BD"/>
<stop offset="1" stop-color="#0ED7B5"/>
</linearGradient>
<clipPath id="clip0_699_18">
<rect width="118" height="71" fill="white" transform="translate(0 18)"/>
</clipPath>
</defs>
</svg>
